# xmcd
#
# Track frame offsets:
#	150
#	16575
#	36450
#	56100
#	67200
#	88575
#	106597
#	127222
#	144600
#	165225
#	183337
#	200025
#
# Disc length: 2966 seconds
#
# Revision: 1
# Processed by: cddbd v1.5.1PL0 Copyright (c) Steve Scherf et al.
# Submitted via: audiograbber 1.80
#
DISCID=aa0b940c
DTITLE=Gigi Moto - Lovemachine
DYEAR=1900
DGENRE=
TTITLE0=Maybe
TTITLE1=Lovemachine
TTITLE2=Private Sun
TTITLE3=B-Side Lover
TTITLE4=Schlange
TTITLE5=Gorgeous
TTITLE6=If This Is It
TTITLE7=The Sadest Song
TTITLE8=Papermoon
TTITLE9=Jealous
TTITLE10=You Look Wonderful
TTITLE11=I Ain't Gonna Cry (Reprise)
EXTD=
EXTT0=
EXTT1=
EXTT2=
EXTT3=
EXTT4=
EXTT5=
EXTT6=
EXTT7=
EXTT8=
EXTT9=
EXTT10=
EXTT11=
PLAYORDER=
